<svg width="16" height="16" viewBox="0 0 16 16" fill="none" xmlns="http://www.w3.org/2000/svg">
<g clip-path="url(#clip0_16079_1347)">
<g clip-path="url(#clip1_16079_1347)">
<path d="M2.40039 0.400391H13.5996C14.0636 0.400391 14.5114 0.561138 14.8672 0.852539L15.0146 0.985352C15.3897 1.36042 15.5996 1.86996 15.5996 2.40039V9.2002H12C11.3503 9.2002 10.7238 9.42581 10.2256 9.83398L10.0205 10.0205C9.49541 10.5456 9.2002 11.2574 9.2002 12V15.5996H2.40039C1.93643 15.5996 1.48864 15.4389 1.13281 15.1475L0.985352 15.0146C0.610279 14.6396 0.400391 14.13 0.400391 13.5996V2.40039L0.410156 2.20215C0.455657 1.74438 0.657213 1.31349 0.985352 0.985352C1.31349 0.657213 1.74438 0.455657 2.20215 0.410156L2.40039 0.400391ZM12 11.5996H15.293C15.2357 11.6909 15.1721 11.7782 15.1006 11.8594L15.0137 11.9512L11.9512 15.0137C11.8447 15.1202 11.7262 15.2125 11.5996 15.292V12C11.5996 11.8939 11.6418 11.7918 11.7168 11.7168C11.7918 11.6418 11.8939 11.5996 12 11.5996ZM4 9.2002C3.72148 9.2002 3.45281 9.29667 3.23926 9.47168L3.15137 9.55176C2.92645 9.77678 2.7998 10.0822 2.7998 10.4004C2.79989 10.6785 2.89664 10.9468 3.07129 11.1602L3.15137 11.248C3.37641 11.4731 3.68174 11.5996 4 11.5996H7.2002C7.47874 11.5996 7.7474 11.5032 7.96094 11.3281L8.04883 11.248C8.27353 11.0231 8.40029 10.7183 8.40039 10.4004C8.40039 10.1219 8.30292 9.85319 8.12793 9.63965L8.04883 9.55176C7.82383 9.32676 7.51838 9.20025 7.2002 9.2002H4ZM4 6C3.72152 6 3.45279 6.09652 3.23926 6.27148L3.15137 6.35156C2.92638 6.5766 2.7998 6.88198 2.7998 7.2002C2.79985 7.47861 2.89636 7.74745 3.07129 7.96094L3.15137 8.04883C3.3764 8.27381 3.68179 8.40039 4 8.40039H12C12.2786 8.40039 12.5472 8.30304 12.7607 8.12793L12.8486 8.04883C13.0736 7.82383 13.2001 7.51838 13.2002 7.2002C13.2002 6.92181 13.1036 6.65295 12.9287 6.43945L12.8486 6.35156C12.6236 6.12652 12.3183 6 12 6H4ZM4 2.7998C3.72156 2.7998 3.45278 2.89638 3.23926 3.07129L3.15137 3.15137C2.92632 3.37641 2.7998 3.68174 2.7998 4C2.7998 4.27844 2.89638 4.54722 3.07129 4.76074L3.15137 4.84863C3.37641 5.07368 3.68174 5.2002 4 5.2002H12C12.3183 5.2002 12.6236 5.07368 12.8486 4.84863C13.0737 4.62359 13.2002 4.31826 13.2002 4C13.2002 3.72156 13.1036 3.45278 12.9287 3.23926L12.8486 3.15137C12.6236 2.92632 12.3183 2.7998 12 2.7998H4Z" fill="white" stroke="white" stroke-width="0.8"/>
</g>
</g>
<defs>
<clipPath id="clip0_16079_1347">
<rect width="16" height="16" fill="white"/>
</clipPath>
<clipPath id="clip1_16079_1347">
<rect width="16" height="16" fill="white"/>
</clipPath>
</defs>
</svg>
