<svg width="17" height="16" viewBox="0 0 17 16" fill="none" xmlns="http://www.w3.org/2000/svg">
<g clip-path="url(#clip0_16079_1771)">
<mask id="path-1-inside-1_16079_1771" fill="white">
<path d="M11.1667 5.33333H2.27778V1.77778H11.1667M8.5 14.2222C7.79276 14.2222 7.11448 13.9413 6.61438 13.4412C6.11428 12.9411 5.83333 12.2628 5.83333 11.5556C5.83333 10.8483 6.11428 10.17 6.61438 9.66994C7.11448 9.16984 7.79276 8.88889 8.5 8.88889C9.20724 8.88889 9.88552 9.16984 10.3856 9.66994C10.8857 10.17 11.1667 10.8483 11.1667 11.5556C11.1667 12.2628 10.8857 12.9411 10.3856 13.4412C9.88552 13.9413 9.20724 14.2222 8.5 14.2222ZM12.9444 0H2.27778C1.80628 0 1.3541 0.187301 1.0207 0.520699C0.687301 0.854097 0.5 1.30628 0.5 1.77778V14.2222C0.5 14.6937 0.687301 15.1459 1.0207 15.4793C1.3541 15.8127 1.80628 16 2.27778 16H14.7222C15.1937 16 15.6459 15.8127 15.9793 15.4793C16.3127 15.1459 16.5 14.6937 16.5 14.2222V3.55556L12.9444 0Z"/>
</mask>
<path d="M11.1667 5.33333H2.27778V1.77778H11.1667M8.5 14.2222C7.79276 14.2222 7.11448 13.9413 6.61438 13.4412C6.11428 12.9411 5.83333 12.2628 5.83333 11.5556C5.83333 10.8483 6.11428 10.17 6.61438 9.66994C7.11448 9.16984 7.79276 8.88889 8.5 8.88889C9.20724 8.88889 9.88552 9.16984 10.3856 9.66994C10.8857 10.17 11.1667 10.8483 11.1667 11.5556C11.1667 12.2628 10.8857 12.9411 10.3856 13.4412C9.88552 13.9413 9.20724 14.2222 8.5 14.2222ZM12.9444 0H2.27778C1.80628 0 1.3541 0.187301 1.0207 0.520699C0.687301 0.854097 0.5 1.30628 0.5 1.77778V14.2222C0.5 14.6937 0.687301 15.1459 1.0207 15.4793C1.3541 15.8127 1.80628 16 2.27778 16H14.7222C15.1937 16 15.6459 15.8127 15.9793 15.4793C16.3127 15.1459 16.5 14.6937 16.5 14.2222V3.55556L12.9444 0Z" fill="white"/>
<path d="M2.27778 5.33333H1.27778V6.33333H2.27778V5.33333ZM2.27778 1.77778V0.777778H1.27778V1.77778H2.27778ZM8.5 14.2222V15.2222V14.2222ZM8.5 8.88889V7.88889V8.88889ZM12.9444 0L13.6516 -0.707107L13.3587 -1H12.9444V0ZM2.27778 0V-1V0ZM0.5 1.77778H-0.5H0.5ZM0.5 14.2222H-0.5H0.5ZM16.5 3.55556H17.5V3.14134L17.2071 2.84845L16.5 3.55556ZM11.1667 5.33333V4.33333H2.27778V5.33333V6.33333H11.1667V5.33333ZM2.27778 5.33333H3.27778V1.77778H2.27778H1.27778V5.33333H2.27778ZM2.27778 1.77778V2.77778H11.1667V1.77778V0.777778H2.27778V1.77778ZM8.5 14.2222V13.2222C8.05797 13.2222 7.63405 13.0466 7.32149 12.7341L6.61438 13.4412L5.90727 14.1483C6.59491 14.8359 7.52754 15.2222 8.5 15.2222V14.2222ZM6.61438 13.4412L7.32149 12.7341C7.00893 12.4215 6.83333 11.9976 6.83333 11.5556H5.83333H4.83333C4.83333 12.528 5.21964 13.4606 5.90727 14.1483L6.61438 13.4412ZM5.83333 11.5556H6.83333C6.83333 11.1135 7.00893 10.6896 7.32149 10.377L6.61438 9.66994L5.90727 8.96283C5.21964 9.65046 4.83333 10.5831 4.83333 11.5556H5.83333ZM6.61438 9.66994L7.32149 10.377C7.63405 10.0645 8.05797 9.88889 8.5 9.88889V8.88889V7.88889C7.52754 7.88889 6.59491 8.2752 5.90727 8.96283L6.61438 9.66994ZM8.5 8.88889V9.88889C8.94203 9.88889 9.36595 10.0645 9.67851 10.377L10.3856 9.66994L11.0927 8.96283C10.4051 8.2752 9.47246 7.88889 8.5 7.88889V8.88889ZM10.3856 9.66994L9.67851 10.377C9.99107 10.6896 10.1667 11.1135 10.1667 11.5556H11.1667H12.1667C12.1667 10.5831 11.7804 9.65046 11.0927 8.96283L10.3856 9.66994ZM11.1667 11.5556H10.1667C10.1667 11.9976 9.99107 12.4215 9.67851 12.7341L10.3856 13.4412L11.0927 14.1483C11.7804 13.4606 12.1667 12.528 12.1667 11.5556H11.1667ZM10.3856 13.4412L9.67851 12.7341C9.36595 13.0466 8.94203 13.2222 8.5 13.2222V14.2222V15.2222C9.47246 15.2222 10.4051 14.8359 11.0927 14.1483L10.3856 13.4412ZM12.9444 0V-1H2.27778V0V1H12.9444V0ZM2.27778 0V-1C1.54107 -1 0.834527 -0.707342 0.313592 -0.186408L1.0207 0.520699L1.72781 1.22781C1.87367 1.08194 2.0715 1 2.27778 1V0ZM1.0207 0.520699L0.313592 -0.186408C-0.207342 0.334527 -0.5 1.04107 -0.5 1.77778H0.5H1.5C1.5 1.5715 1.58194 1.37367 1.72781 1.22781L1.0207 0.520699ZM0.5 1.77778H-0.5V14.2222H0.5H1.5V1.77778H0.5ZM0.5 14.2222H-0.5C-0.5 14.9589 -0.207342 15.6655 0.313592 16.1864L1.0207 15.4793L1.72781 14.7722C1.58194 14.6263 1.5 14.4285 1.5 14.2222H0.5ZM1.0207 15.4793L0.313592 16.1864C0.834526 16.7073 1.54106 17 2.27778 17V16V15C2.0715 15 1.87367 14.9181 1.72781 14.7722L1.0207 15.4793ZM2.27778 16V17H14.7222V16V15H2.27778V16ZM14.7222 16V17C15.4589 17 16.1655 16.7073 16.6864 16.1864L15.9793 15.4793L15.2722 14.7722C15.1263 14.9181 14.9285 15 14.7222 15V16ZM15.9793 15.4793L16.6864 16.1864C17.2073 15.6655 17.5 14.9589 17.5 14.2222H16.5H15.5C15.5 14.4285 15.4181 14.6263 15.2722 14.7722L15.9793 15.4793ZM16.5 14.2222H17.5V3.55556H16.5H15.5V14.2222H16.5ZM16.5 3.55556L17.2071 2.84845L13.6516 -0.707107L12.9444 0L12.2373 0.707107L15.7929 4.26266L16.5 3.55556Z" fill="white" mask="url(#path-1-inside-1_16079_1771)"/>
</g>
<defs>
<clipPath id="clip0_16079_1771">
<rect width="16" height="16" fill="white" transform="translate(0.5)"/>
</clipPath>
</defs>
</svg>
