<svg width="16" height="16" viewBox="0 0 16 16" fill="none" xmlns="http://www.w3.org/2000/svg">
<g clip-path="url(#clip0_16079_2183)">
<path d="M2.88889 14.2222C2.88889 15.2 3.68889 16 4.66667 16H11.7778C12.7556 16 13.5556 15.2 13.5556 14.2222V6.33333C13.5556 5.35556 12.7556 4.55556 11.7778 4.55556H4.66667C3.68889 4.55556 2.88889 5.35556 2.88889 6.33333V14.2222ZM13.5556 0.888889H11.3333L10.7022 0.257778C10.5422 0.0977777 10.3111 0 10.08 0H6.36444C6.13333 0 5.90222 0.0977777 5.74222 0.257778L5.11111 0.888889H2.88889C2.4 0.888889 2 1.28889 2 1.77778C2 2.26667 2.4 2.66667 2.88889 2.66667H13.5556C14.0444 2.66667 14.4444 2.26667 14.4444 1.77778C14.4444 1.28889 14.0444 0.888889 13.5556 0.888889Z" fill="#F9261A"/>
</g>
<defs>
<clipPath id="clip0_16079_2183">
<rect width="16" height="16" fill="white"/>
</clipPath>
</defs>
</svg>
